# xmcd
#
# Track frame offsets:
#   150
#   13058
#   27827
#   42993
#   55285
#   72522
#   89467
#   104868
#   125732
#   136396
#   149877
#   163644
#   179768
#   194328
#   208684
#   224908
#   240359
#   252388
#   269127
#   284386
#
# Disc length: 4016 seconds
#
# Revision: 0
# Processed by: cddbd v1.5.1PL0 Copyright (c) Steve Scherf et al.
# Submitted via: Media_Universe 3.0
#
DISCID=580fae14
DTITLE=RICOCHET - Blink Of An Eye/ Ricochet
DYEAR=2004
DGENRE=Country
TTITLE0=Blink Of An Eye
TTITLE1=He Left A Lot To Be Desired
TTITLE2=What A Woman Can Do
TTITLE3=Cant Be Good For Your Heart
TTITLE4=The Girl Formally Known As Mine
TTITLE5=Dont Forget To Feed The Jukebox (when i'm gone)
TTITLE6=The Last Love In This Town
TTITLE7=Connected At The Heart
TTITLE8=You Can't Go By That
TTITLE9=You Still Got It
TTITLE10=Daddy's Money
TTITLE11=What Do I Know
TTITLE12=I Cant Dance
TTITLE13=Love Is Stronger Than Pride
TTITLE14=Ease My Troubled Mind
TTITLE15=A Little Bit Of Love (is a dangerous thing)
TTITLE16=From Good To Bad To Worse To Gone
TTITLE17=The Truth Is I Lied
TTITLE18=I Wasn't Ready For You
TTITLE19=Rowdy
EXTD=
EXTT0=
EXTT1=
EXTT2=
EXTT3=
EXTT4=
EXTT5=
EXTT6=
EXTT7=
EXTT8=
EXTT9=
EXTT10=
EXTT11=
EXTT12=
EXTT13=
EXTT14=
EXTT15=
EXTT16=
EXTT17=
EXTT18=
EXTT19=
PLAYORDER=
